<svg width="800" height="480" viewBox="0 0 800 480" fill="none" xmlns="http://www.w3.org/2000/svg">
  <defs>
    <linearGradient id="grad1" x1="0%" y1="0%" x2="100%" y2="100%">
      <stop offset="0%" style="stop-color:#FFF9E6;stop-opacity:1" />
      <stop offset="100%" style="stop-color:#FFE5B4;stop-opacity:1" />
    </linearGradient>
  </defs>
  
  <!-- Background -->
  <rect width="800" height="480" fill="url(#grad1)"/>
  
  <!-- Doodle Wave -->
  <path d="M 50 240 Q 200 200, 350 240 T 750 240" stroke="#FFD166" stroke-width="3" fill="none" stroke-linecap="round"/>
  
  <!-- UI Elements -->
  <rect x="150" y="100" width="500" height="80" rx="12" fill="white" opacity="0.9"/>
  <rect x="170" y="120" width="200" height="15" rx="7" fill="#FFD166"/>
  <rect x="170" y="145" width="340" height="12" rx="6" fill="#E8E8E8"/>
  
  <rect x="150" y="210" width="240" height="180" rx="12" fill="white" opacity="0.9"/>
  <circle cx="270" cy="280" r="40" fill="#FF7A18" opacity="0.3"/>
  <rect x="170" y="330" width="180" height="10" rx="5" fill="#FFD166"/>
  <rect x="170" y="350" width="140" height="10" rx="5" fill="#E8E8E8"/>
  
  <rect x="410" y="210" width="240" height="180" rx="12" fill="white" opacity="0.9"/>
  <circle cx="530" cy="280" r="40" fill="#FF9A44" opacity="0.3"/>
  <rect x="430" y="330" width="180" height="10" rx="5" fill="#FFD166"/>
  <rect x="430" y="350" width="140" height="10" rx="5" fill="#E8E8E8"/>
  
  <!-- Decorative Dots -->
  <circle cx="100" cy="100" r="8" fill="#FF7A18" opacity="0.4"/>
  <circle cx="700" cy="400" r="10" fill="#FFD166" opacity="0.5"/>
</svg>