<svg width="800" height="480" viewBox="0 0 800 480" fill="none" xmlns="http://www.w3.org/2000/svg">
  <defs>
    <linearGradient id="grad2" x1="0%" y1="0%" x2="100%" y2="100%">
      <stop offset="0%" style="stop-color:#FFFAF0;stop-opacity:1" />
      <stop offset="100%" style="stop-color:#FFE8C5;stop-opacity:1" />
    </linearGradient>
  </defs>
  
  <!-- Background -->
  <rect width="800" height="480" fill="url(#grad2)"/>
  
  <!-- Doodle Curve -->
  <path d="M 100 120 C 200 80, 300 160, 400 120 S 600 80, 700 120" stroke="#FFD166" stroke-width="3" fill="none" stroke-linecap="round"/>
  
  <!-- Book/Education Elements -->
  <rect x="200" y="150" width="400" height="240" rx="16" fill="white" opacity="0.95"/>
  
  <!-- Header -->
  <rect x="220" y="170" width="120" height="20" rx="10" fill="#FF7A18"/>
  <rect x="360" y="170" width="80" height="20" rx="10" fill="#FFD166"/>
  
  <!-- Content Blocks -->
  <rect x="220" y="210" width="360" height="15" rx="7" fill="#E8E8E8"/>
  <rect x="220" y="235" width="320" height="15" rx="7" fill="#E8E8E8"/>
  <rect x="220" y="260" width="280" height="15" rx="7" fill="#E8E8E8"/>
  
  <!-- Cards -->
  <rect x="220" y="295" width="170" height="75" rx="12" fill="#FFF3D9"/>
  <circle cx="270" cy="320" r="15" fill="#FF7A18" opacity="0.4"/>
  <rect x="240" y="345" width="100" height="8" rx="4" fill="#FFD166"/>
  
  <rect x="410" y="295" width="170" height="75" rx="12" fill="#FFF3D9"/>
  <circle cx="460" cy="320" r="15" fill="#FF9A44" opacity="0.4"/>
  <rect x="430" y="345" width="100" height="8" rx="4" fill="#FFD166"/>
  
  <!-- Decorative Elements -->
  <circle cx="120" cy="240" r="12" fill="#FF7A18" opacity="0.3"/>
  <circle cx="680" cy="200" r="10" fill="#FFD166" opacity="0.4"/>
  <circle cx="650" cy="350" r="14" fill="#FF9A44" opacity="0.3"/>
</svg>